<?xml version="1.0" encoding="UTF-8"?>
<svg width="200px" height="150px" viewBox="0 0 24 24" version="1.1" xmlns="http://www.w3.org/2000/svg" xmlns:xlink="http://www.w3.org/1999/xlink">
    <title>fashion</title>
    <g id="fashion" stroke="none" stroke-width="1" fill="cinnamon" fillRule="evenodd">
        <path d="M4.31652114,12.4487 L6.00029114,11.8874 L6.00029114,20 C6.00029114,20.5523 6.44801114,21 7.00029114,21 L17.0003011,21 C17.5526011,21 18.0003011,20.5523 18.0003011,20 L18.0003011,11.8874 L19.6841011,12.4487 C20.1726011,12.6115 20.7050011,12.3767 20.9141011,11.9061 L22.9141011,7.40614 C23.1444011,6.88794 22.8982011,6.28213 22.3717011,6.07152 L17.3717011,4.07152 C17.2536011,4.02428 17.1275011,4 17.0003011,4 L15.0003011,4 C14.4875011,4 14.0648011,4.38604 14.0070011,4.88338 L13.9957011,5.15612 C13.9313011,6.23439 13.1964011,7 12.0003011,7 C10.7472011,7 10.0003011,6.15973 10.0003011,5 C10.0003011,4.44772 9.55258114,4 9.00029114,4 L7.00029114,4 C6.87308114,4 6.74702114,4.02428 6.62890114,4.07152 L1.62890114,6.07152 C1.10239114,6.28213 0.856173143,6.88794 1.08648114,7.40614 L3.08648114,11.9061 C3.29563114,12.3767 3.82797114,12.6115 4.31652114,12.4487 Z M3.33586114,7.54281 L7.19288114,6 L8.11319114,6 L8.16215114,6.19014 C8.62335114,7.82102 10.0386011,9 12.0003011,9 C14.0374011,9 15.4853011,7.72859 15.8874011,6 L16.8077011,6 L20.6647011,7.54281 L19.4552011,10.2642 L17.3165011,9.55132 C16.6690011,9.33547 16.0003011,9.81744 16.0003011,10.5 L16.0003011,19 L8.00029114,19 L8.00029114,10.5 C8.00029114,9.81744 7.33160114,9.33547 6.68407114,9.55132 L4.54537114,10.2642 L3.33586114,7.54281 Z" id="Shape" fill="#e4e4e7"></path>
    </g>
</svg>